{
    "asset" : {
        "generator" : "Khronos glTF Blender I/O v1.0.5",
        "version" : "2.0"
    },
    "scene" : 0,
    "scenes" : [
        {
            "name" : "Scene",
            "nodes" : [
                0,
                1
            ]
        }
    ],
    "nodes" : [
        {
            "mesh" : 0,
            "name" : "LightHouse"
        },
        {
            "mesh" : 1,
            "name" : "Rock",
            "translation" : [
                0,
                0.22893036901950836,
                0
            ]
        }
    ],
    "materials" : [
        {
            "doubleSided" : true,
            "name" : "Base",
            "pbrMetallicRoughness" : {
                "baseColorFactor" : [
                    0.800000011920929,
                    0.800000011920929,
                    0.800000011920929,
                    1
                ],
                "metallicFactor" : 0,
                "roughnessFactor" : 0.5
            }
        },
        {
            "doubleSided" : true,
            "name" : "Stripe",
            "pbrMetallicRoughness" : {
                "baseColorFactor" : [
                    0,
                    0,
                    0,
                    1
                ],
                "metallicFactor" : 0,
                "roughnessFactor" : 0.5
            }
        },
        {
            "doubleSided" : true,
            "name" : "Window",
            "pbrMetallicRoughness" : {
                "baseColorFactor" : [
                    0.3343486785888672,
                    0.396199494600296,
                    0.8000000715255737,
                    1
                ],
                "metallicFactor" : 0,
                "roughnessFactor" : 0
            }
        },
        {
            "doubleSided" : true,
            "name" : "Rock",
            "pbrMetallicRoughness" : {
                "baseColorFactor" : [
                    0.09553998708724976,
                    0.07922066748142242,
                    0.06270851939916611,
                    1
                ],
                "metallicFactor" : 0,
                "roughnessFactor" : 1
            }
        }
    ],
    "meshes" : [
        {
            "name" : "Circle.001",
            "primitives" : [
                {
                    "attributes" : {
                        "POSITION" : 0,
                        "NORMAL" : 1,
                        "TEXCOORD_0" : 2
                    },
                    "indices" : 3,
                    "material" : 0
                },
                {
                    "attributes" : {
                        "POSITION" : 4,
                        "NORMAL" : 5,
                        "TEXCOORD_0" : 6
                    },
                    "indices" : 7,
                    "material" : 1
                },
                {
                    "attributes" : {
                        "POSITION" : 8,
                        "NORMAL" : 9,
                        "TEXCOORD_0" : 10
                    },
                    "indices" : 11,
                    "material" : 2
                }
            ]
        },
        {
            "name" : "Icosphere.002",
            "primitives" : [
                {
                    "attributes" : {
                        "POSITION" : 12,
                        "NORMAL" : 13,
                        "TEXCOORD_0" : 14
                    },
                    "indices" : 15,
                    "material" : 3
                }
            ]
        }
    ],
    "accessors" : [
        {
            "bufferView" : 0,
            "componentType" : 5126,
            "count" : 208,
            "max" : [
                1.101062536239624,
                5.957995414733887,
                1.101062536239624
            ],
            "min" : [
                -1.1010627746582031,
                0,
                -1.101062536239624
            ],
            "type" : "VEC3"
        },
        {
            "bufferView" : 1,
            "componentType" : 5126,
            "count" : 208,
            "type" : "VEC3"
        },
        {
            "bufferView" : 2,
            "componentType" : 5126,
            "count" : 208,
            "type" : "VEC2"
        },
        {
            "bufferView" : 3,
            "componentType" : 5123,
            "count" : 420,
            "type" : "SCALAR"
        },
        {
            "bufferView" : 4,
            "componentType" : 5126,
            "count" : 64,
            "max" : [
                0.9383984208106995,
                3.8637053966522217,
                0.9383984208106995
            ],
            "min" : [
                -0.9383984208106995,
                0.9659262895584106,
                -0.9383984208106995
            ],
            "type" : "VEC3"
        },
        {
            "bufferView" : 5,
            "componentType" : 5126,
            "count" : 64,
            "type" : "VEC3"
        },
        {
            "bufferView" : 6,
            "componentType" : 5126,
            "count" : 64,
            "type" : "VEC2"
        },
        {
            "bufferView" : 7,
            "componentType" : 5123,
            "count" : 96,
            "type" : "SCALAR"
        },
        {
            "bufferView" : 8,
            "componentType" : 5126,
            "count" : 32,
            "max" : [
                0.683221697807312,
                5.431183338165283,
                0.6832218170166016
            ],
            "min" : [
                -0.6832220554351807,
                4.631881237030029,
                -0.6832218170166016
            ],
            "type" : "VEC3"
        },
        {
            "bufferView" : 9,
            "componentType" : 5126,
            "count" : 32,
            "type" : "VEC3"
        },
        {
            "bufferView" : 10,
            "componentType" : 5126,
            "count" : 32,
            "type" : "VEC2"
        },
        {
            "bufferView" : 11,
            "componentType" : 5123,
            "count" : 48,
            "type" : "SCALAR"
        },
        {
            "bufferView" : 12,
            "componentType" : 5126,
            "count" : 130,
            "max" : [
                4.545060634613037,
                0.9507099390029907,
                3.440325975418091
            ],
            "min" : [
                -4.8345441818237305,
                -2.3410894870758057,
                -3.4225785732269287
            ],
            "type" : "VEC3"
        },
        {
            "bufferView" : 13,
            "componentType" : 5126,
            "count" : 130,
            "type" : "VEC3"
        },
        {
            "bufferView" : 14,
            "componentType" : 5126,
            "count" : 130,
            "type" : "VEC2"
        },
        {
            "bufferView" : 15,
            "componentType" : 5123,
            "count" : 144,
            "type" : "SCALAR"
        }
    ],
    "bufferViews" : [
        {
            "buffer" : 0,
            "byteLength" : 2496,
            "byteOffset" : 0
        },
        {
            "buffer" : 0,
            "byteLength" : 2496,
            "byteOffset" : 2496
        },
        {
            "buffer" : 0,
            "byteLength" : 1664,
            "byteOffset" : 4992
        },
        {
            "buffer" : 0,
            "byteLength" : 840,
            "byteOffset" : 6656
        },
        {
            "buffer" : 0,
            "byteLength" : 768,
            "byteOffset" : 7496
        },
        {
            "buffer" : 0,
            "byteLength" : 768,
            "byteOffset" : 8264
        },
        {
            "buffer" : 0,
            "byteLength" : 512,
            "byteOffset" : 9032
        },
        {
            "buffer" : 0,
            "byteLength" : 192,
            "byteOffset" : 9544
        },
        {
            "buffer" : 0,
            "byteLength" : 384,
            "byteOffset" : 9736
        },
        {
            "buffer" : 0,
            "byteLength" : 384,
            "byteOffset" : 10120
        },
        {
            "buffer" : 0,
            "byteLength" : 256,
            "byteOffset" : 10504
        },
        {
            "buffer" : 0,
            "byteLength" : 96,
            "byteOffset" : 10760
        },
        {
            "buffer" : 0,
            "byteLength" : 1560,
            "byteOffset" : 10856
        },
        {
            "buffer" : 0,
            "byteLength" : 1560,
            "byteOffset" : 12416
        },
        {
            "buffer" : 0,
            "byteLength" : 1040,
            "byteOffset" : 13976
        },
        {
            "buffer" : 0,
            "byteLength" : 288,
            "byteOffset" : 15016
        }
    ],
    "buffers" : [
        {
            "byteLength" : 15304,
            "uri" : "data:application/octet-stream;base64,"
        }
    ]
}
