# Blender v2.81 (sub 16) OBJ File: 'testing-cube.blend'
# www.blender.org
mtllib testing-cube-water.mtl
o WaterCurtain_Plane
v -1.153212 0.000000 1.153212
v 1.153212 0.000000 1.153212
v -1.153212 0.000000 -1.153212
v 1.153212 0.000000 -1.153212
v -1.031283 0.000000 -1.031283
v -1.031283 0.000000 1.031283
v 1.031283 0.000000 1.031283
v 1.031283 0.000000 -1.031283
vt 0.152176 0.152176
vt 0.152176 0.847824
vt 0.000000 1.000000
vt 0.000000 0.000000
vt 0.847824 0.152176
vt 1.000000 0.000000
vt 0.847824 0.847824
vt 1.000000 1.000000
vn 0.0000 1.0000 0.0000
usemtl None
s off
f 6/1/1 5/2/1 3/3/1 1/4/1
f 7/5/1 6/1/1 1/4/1 2/6/1
f 8/7/1 7/5/1 2/6/1 4/8/1
f 5/2/1 8/7/1 4/8/1 3/3/1
